<?xml version="1.0" encoding="UTF-8" standalone="no"?>
<svg width="141px" height="26px" viewBox="0 0 141 26" version="1.1" xmlns="http://www.w3.org/2000/svg" xmlns:xlink="http://www.w3.org/1999/xlink">
    <!-- Generator: Sketch 40.3 (33839) - http://www.bohemiancoding.com/sketch -->
    <title>logo-proxem</title>
    <desc>Created with Sketch.</desc>
    <defs></defs>
    <g id="Page-1" stroke="none" stroke-width="1" fill="none" fill-rule="evenodd">
        <g id="logo-proxem" fill="#000000">
            <g id="diamant">
                <path d="M28.0198667,16.6215938 C28.2406093,16.6215938 28.3407135,16.8968803 28.1725898,17.0386945 L18.4284743,25.2472375 C18.1717969,25.4634882 17.855442,25.5712927 17.5397288,25.5712927 C17.5397288,25.5712927 17.401123,25.5732178 17.2535335,25.5417748 C17.0372828,25.4962146 16.8300158,25.3980355 16.651625,25.2472375 L6.90750949,17.0386945 C6.7387441,16.8968803 6.83948998,16.6215938 7.05959084,16.6215938 L28.0198667,16.6215938 Z" id="bottom"></path>
                <path d="M31.5998747,13.9701163 C31.7391222,13.9701163 31.8738778,13.9207059 31.9797572,13.8315105 L34.4130589,11.7819415 C34.8340098,11.427085 34.5837494,10.7398313 34.0331764,10.7398313 L0.328867909,10.7398313 C0.0227801186,10.7398313 -0.116467367,11.1216389 0.11710906,11.3192805 L3.09970036,13.8315105 C3.15873616,13.8809209 3.26076543,13.9701163 3.38397058,13.9701163 L31.5998747,13.9701163 Z" id="bottom-middle" opacity="0.849999964"></path>
                <path d="M34.4827468,8.08861051 C34.7657336,8.08861051 34.9158899,7.7542882 34.7285154,7.54317105 L32.6731712,5.2247325 C32.6109269,5.15478791 32.5217315,5.11436122 32.4274026,5.11436122 L2.65218333,5.11436122 C2.55785439,5.11436122 2.46865899,5.15478791 2.40641473,5.2247325 L0.351712197,7.54317105 C0.163696007,7.7549299 0.313852282,8.08861051 0.596839108,8.08861051 L34.4827468,8.08861051 Z" id="top-middle" opacity="0.703999534"></path>
                <path d="M29.4952484,2.46288375 C29.7782352,2.46288375 29.9283915,2.12856145 29.741017,1.91744429 L28.5506756,0.574379836 C28.2266204,0.209256244 27.7613926,6.41693482e-05 27.2730639,6.41693482e-05 L7.80665039,6.41693482e-05 C7.31832165,6.41693482e-05 6.85309388,0.209256244 6.52903867,0.574379836 L5.33869726,1.91744429 C5.15132276,2.12856145 5.30147904,2.46288375 5.58446587,2.46288375 L29.4952484,2.46288375 Z" id="top" opacity="0.599999964"></path>
            </g>
            <g id="proxem" transform="translate(52.246097, 4.264987)">
                <path d="M87.8480302,5.51413626 C87.8480302,2.55400423 85.4397545,0.14572859 82.4796225,0.14572859 C80.8689719,0.14572859 79.4258032,0.861858516 78.4408037,1.98867227 C77.4558042,0.863141903 76.0132773,0.147011977 74.4032683,0.147011977 C73.3438324,0.147011977 72.3581912,0.459516702 71.5259148,0.990838905 L71.5259148,0.514060648 L69.0207434,0.514702342 L69.0207434,13.0970281 L71.6818463,13.0970281 L71.6818463,8.03920011 L71.6953219,6.14363757 L71.6953219,5.51541965 C71.6953219,4.02027383 72.9074808,2.80811485 74.4032683,2.80811485 C75.8984142,2.80811485 77.1112148,4.02027383 77.1112148,5.51541965 L77.1112148,5.51541965 L77.1112148,13.0983115 L79.7723177,13.0983115 L79.7723177,5.50964441 C79.7748845,4.01642367 80.9857601,2.80618977 82.4796225,2.80618977 C83.9747683,2.80618977 85.187569,4.01899045 85.187569,5.51413626 L85.187569,5.51541965 L85.187569,5.51541965 L85.187569,13.0970281 L87.8480302,13.0970281 L87.8480302,6.12181999 L87.8621474,5.51413626 L87.8480302,5.51413626 Z" id="m"></path>
                <path d="M63.0334224,5.63252871 L55.5236836,5.63252871 L55.5236836,5.63252871 C56.0120123,4.02123637 57.5077998,2.84822069 59.2782321,2.84822069 C61.0493061,2.84822069 62.5450937,4.02123637 63.0334224,5.63252871 L63.0334224,5.63252871 Z M59.9455934,0.22048588 C55.7136248,-0.198539963 52.1843107,3.4180445 52.7534928,7.67503906 C53.1327337,10.5113242 55.3793025,12.8233459 58.2046789,13.2725313 C61.2713321,13.7602183 64.0312558,12.1136329 65.2305809,9.58856902 L65.2305809,9.58856902 L62.0092796,9.58856902 C61.3027751,10.2738977 60.3408765,10.6974154 59.2782321,10.6974154 C57.5219171,10.6974154 56.035755,9.54365048 55.5352341,7.95225064 L55.5352341,7.95225064 L63.264432,7.95225064 L63.264432,7.93620831 L65.759978,7.93620831 L65.759978,7.93620831 C65.9062841,7.12061589 65.9050007,6.25432969 65.711851,5.36365914 C65.115076,2.60694394 62.7530023,0.498339158 59.9455934,0.22048588 L59.9455934,0.22048588 Z" id="e"></path>
                <path d="M45.1676491,2.8197295 C43.9644739,1.2251212 42.0605693,0.187502835 39.9134629,0.187502835 L39.9134629,2.84796401 C42.0766116,2.84796401 43.8310016,4.59914552 43.8374186,6.76101086 C43.8374186,6.76486103 43.8367769,6.76871119 43.8367769,6.77256135 C43.8367769,6.77641151 43.8374186,6.78090336 43.8374186,6.78475352 C43.8310016,8.94661886 42.0766116,10.6971587 39.9134629,10.6971587 L39.9134629,13.3582616 C42.0605693,13.3582616 43.9644739,12.3206432 45.1676491,10.7260349 C46.3708244,12.3206432 48.274729,13.3582616 50.4218354,13.3582616 L50.4218354,10.6971587 C48.2586866,10.6971587 46.5042967,8.94661886 46.4978797,6.78475352 C46.4978797,6.78090336 46.4985214,6.77641151 46.4985214,6.77256135 C46.4985214,6.76871119 46.4978797,6.76486103 46.4978797,6.76101086 C46.5042967,4.59914552 48.2586866,2.84796401 50.4218354,2.84796401 L50.4218354,0.187502835 C48.274729,0.187502835 46.3708244,1.2251212 45.1676491,2.8197295" id="x"></path>
                <path d="M30.7533526,10.6973512 C28.585712,10.6973512 26.8287553,8.94039444 26.8287553,6.77275385 C26.8287553,4.60511327 28.585712,2.84815652 30.7533526,2.84815652 C32.9209932,2.84815652 34.67795,4.60511327 34.67795,6.77275385 C34.67795,8.94039444 32.9209932,10.6973512 30.7533526,10.6973512 M30.7533526,0.187695343 C27.1220092,0.187695343 24.1676524,3.14141044 24.1676524,6.77275385 C24.1676524,10.4040973 27.1220092,13.3578124 30.7533526,13.3578124 C34.384696,13.3578124 37.3384111,10.4040973 37.3384111,6.77275385 C37.3384111,3.14141044 34.384696,0.187695343 30.7533526,0.187695343" id="o"></path>
                <path d="M19.3242142,0.53947171 L16.8196845,0.53947171 L16.8196845,12.9735663 L19.4801457,12.9735663 L19.4801457,7.97541578 L19.4916962,6.45781069 L19.494263,6.45781069 C19.494263,4.74833926 20.5896337,3.29811199 22.1149391,2.75973116 L22.1149391,0.271243835 C21.0651286,0.491986393 20.1122138,0.975823278 19.3242142,1.64703466 L19.3242142,0.53947171 Z" id="r"></path>
                <path d="M6.87279387,10.6973512 C4.78087312,10.6973512 3.07653523,9.05974942 2.95974702,6.99734657 C2.95525516,6.91905997 2.94883823,6.84141506 2.94883823,6.76184507 C2.95461347,4.59933803 4.70900345,2.84815652 6.87279387,2.84815652 C8.98139865,2.84815652 10.6960036,4.51206772 10.7884075,6.59757153 C10.7909743,6.6598158 10.7967495,6.72077668 10.7967495,6.78366264 C10.7909743,8.94616968 9.03658429,10.6973512 6.87279387,10.6973512 M6.87279387,0.187695343 C5.40909104,0.187695343 4.05832626,0.672173922 2.96359718,1.48327448 L2.96359718,0.556027402 L0.459067517,0.556027402 L0.459067517,0.583620222 L0.459067517,5.27632466 C0.459067517,5.27696635 0.458425823,5.27760804 0.458425823,5.27760804 L0.459067517,8.26854136 L0.459067517,8.26918305 L0.459067517,17.250325 L0.459067517,17.2779178 L0.486660337,17.2779178 L3.10605313,17.2779178 L3.11952869,17.2779178 L3.11952869,17.2644423 C3.12466224,17.2593087 3.13364595,17.2580253 3.13364595,17.250325 L3.13364595,12.4857509 C3.13364595,12.3933471 3.16893909,12.311852 3.21834949,12.2412657 C4.26559325,12.9432784 5.52010401,13.3578124 6.87279387,13.3578124 C7.37909003,13.3578124 7.86998554,13.2955681 8.34355533,13.1864802 C9.64234294,12.9439201 10.873111,12.3375197 11.7316969,11.4308068 C12.8687778,10.2295566 13.4950706,8.55922851 13.4950706,6.72655192 C13.4950706,5.16723676 12.9329471,3.79850457 12.0551104,2.72302629 C10.848085,1.18296193 8.9762651,0.187695343 6.87279387,0.187695343" id="p"></path>
            </g>
        </g>
    </g>
</svg>